<svg xmlns="http://www.w3.org/2000/svg" width="70" height="60" viewBox="0 0 70 60">
  <defs>
    <style>
      .cls-1 {
        fill: #acacac;
      }

      .cls-1, .cls-2 {
        fill-rule: evenodd;
      }

      .cls-2 {
        fill: #0b4bce;
      }
    </style>
  </defs>
  <path class="cls-1" d="M1604,937m-30.9-30.835a3,3,0,1,1-1.96,3.765A2.994,2.994,0,0,1,1573.1,906.165Zm-1.96,3.765,5.72-1.81L1582,923l-6.63,1.278ZM1575,924l21-4,8,17h-12Zm4.94-4,7.73,2.071-1.3,4.829-7.72-2.07Zm7.27-6.423a3.422,3.422,0,0,1,.93,4.705,3.326,3.326,0,0,1-4.66.875,3.422,3.422,0,0,1-.93-4.705A3.326,3.326,0,0,1,1587.21,913.577Zm-0.4-.274L1596,920l-2.54,6-10.38-7.112Z" transform="translate(-1571 -877)"/>
  <path id="Rectangle_50_copy" data-name="Rectangle 50 copy" class="cls-1" d="M1608,937m30.9-30.835a3,3,0,1,0,1.96,3.765A2.994,2.994,0,0,0,1638.9,906.165Zm1.96,3.765-5.72-1.81L1630,923l6.63,1.278ZM1637,924l-21-4-8,17h12Zm-4.94-4-7.73,2.071,1.3,4.829,7.72-2.07Zm-7.27-6.423a3.422,3.422,0,0,0-.93,4.705,3.326,3.326,0,0,0,4.66.875,3.422,3.422,0,0,0,.93-4.705A3.326,3.326,0,0,0,1624.79,913.577Zm0.4-.274L1616,920l2.54,6,10.38-7.112Z" transform="translate(-1571 -877)"/>
  <path class="cls-2" d="M1606,877a20,20,0,1,1-20,20A20,20,0,0,1,1606,877Zm0,0c7.73,0,14,8.954,14,20s-6.27,20-14,20-14-8.954-14-20S1598.27,877,1606,877Zm0,0c6.63,0,12,8.954,12,20s-5.37,20-12,20-12-8.954-12-20S1599.37,877,1606,877Zm-28,8h50v1h-50v-1Zm0,11h50v2h-50v-2Zm0,12h50v1h-50v-1Z" transform="translate(-1571 -877)"/>
</svg>
