<svg xmlns="http://www.w3.org/2000/svg" width="70" height="60" viewBox="0 0 70 60"><defs><style>.cls-1,.cls-2{fill:#acacac;fill-rule:evenodd}.cls-2{fill:#0b4bce}</style></defs><path class="cls-1" d="M2.1 29.165A3 3 0 1 1 .14 32.93a2.994 2.994 0 0 1 1.96-3.765zM.14 32.93l5.72-1.81L11 46l-6.63 1.278zM4 47l21-4 8 17H21zm4.94-4l7.73 2.071-1.3 4.829-7.72-2.07zm7.27-6.423a3.422 3.422 0 0 1 .93 4.705 3.326 3.326 0 0 1-4.66.875 3.422 3.422 0 0 1-.93-4.705 3.326 3.326 0 0 1 4.66-.875zm-.4-.274L25 43l-2.54 6-10.38-7.112z"/><path id="Rectangle_50_copy" data-name="Rectangle 50 copy" class="cls-1" d="M1638.9 906.165a3 3 0 1 0 1.96 3.765 2.994 2.994 0 0 0-1.96-3.765zm1.96 3.765l-5.72-1.81L1630 923l6.63 1.278zM1637 924l-21-4-8 17h12zm-4.94-4l-7.73 2.071 1.3 4.829 7.72-2.07zm-7.27-6.423a3.422 3.422 0 0 0-.93 4.705 3.326 3.326 0 0 0 4.66.875 3.422 3.422 0 0 0 .93-4.705 3.326 3.326 0 0 0-4.66-.875zm.4-.274L1616 920l2.54 6 10.38-7.112z" transform="translate(-1571 -877)"/><path class="cls-2" d="M35 0a20 20 0 1 1-20 20A20 20 0 0 1 35 0zm0 0c7.73 0 14 8.954 14 20s-6.27 20-14 20-14-8.954-14-20S27.27 0 35 0zm0 0c6.63 0 12 8.954 12 20s-5.37 20-12 20-12-8.954-12-20S28.37 0 35 0zM7 8h50v1H7V8zm0 11h50v2H7v-2zm0 12h50v1H7v-1z"/></svg>